# xmcd
#
# Track frame offsets:
#	150
#	19360
#	37007
#	55884
#	77304
#	92806
#	108076
#	117967
#	132710
#	151595
#	161329
#	175589
#	192938
#	209278
#	220669
#	234842
#	246272
#	255943
#	272591
#	286999
#
# Disc length: 3972 seconds
#
# Revision: 0
# Processed by: cddbd v1.5.2PL0 Copyright (c) Steve Scherf et al.
# Submitted via: audiograbber 1.83.01
#
DISCID=030f8214
DTITLE=Various Artist - Country The Ultimate Collection - CD1
DYEAR=2014
DGENRE=Country
TTITLE0=Bobbie Gentry - Ode to Billy Joe
TTITLE1=Linda Ronstadt - Blue Bayou
TTITLE2=Juice Newton - Angel of the Morning
TTITLE3=Lynyrd Skynyrd - Sweet Home Alabama
TTITLE4=Billy Ray Cyrus - Achy Breaky Heart
TTITLE5=Nitty Gritty Dirt Band - Fishin' in the dark
TTITLE6=Tom T. Hall - Country is
TTITLE7=Glen Campbell - Rhinestone Cowboy
TTITLE8=Kris Kristofferson - Me and Bobby McGee
TTITLE9=Waylon Jennings - Theme from The Dukes of Hazzard
TTITLE10=Soggy Bottom Boys - I am a man of constant sorrow
TTITLE11=Dillard and Clark - Train leaves here this morning
TTITLE12=Rita Coolidge - We're all alone
TTITLE13=Patti Page - A poor man's roses
TTITLE14=Jerry Lee Lewis - Cold, cold heart
TTITLE15=The Flatlanders - Waiting for a train
TTITLE16=Johnnie Allan - The promised land
TTITLE17=The Flying Burrito Brothers - Hot Burrito #1
TTITLE18=Warren Smith - Black Jack David
TTITLE19=Roger Miller - King of the road
EXTD=
EXTT0=
EXTT1=
EXTT2=
EXTT3=
EXTT4=
EXTT5=
EXTT6=
EXTT7=
EXTT8=
EXTT9=
EXTT10=
EXTT11=
EXTT12=
EXTT13=
EXTT14=
EXTT15=
EXTT16=
EXTT17=
EXTT18=
EXTT19=
PLAYORDER=
